<?xml version="1.0" encoding="UTF-8" standalone="no"?>
<!DOCTYPE svg PUBLIC "-//W3C//DTD SVG 1.0//EN" "http://www.w3.org/TR/2001/PR-SVG-20010719/DTD/svg10.dtd">
<svg width="17cm" height="18cm" viewBox="3 44 332 357" xmlns="http://www.w3.org/2000/svg" xmlns:xlink="http://www.w3.org/1999/xlink">
  <g>
    <path style="fill: #000080" d="M 60.5272 383.602 C 60.5272,383.602 81.535,389.702 109.499,393.188 C 120.824,394.602 163.912,399.538 196.948,399.408 C 196.948,399.408 237.184,399.454 259.394,396.298 C 282.632,392.996 295.798,388.784 303.126,380.376 C 303.316,378.372 306.662,371.838 297.63,365.536 C 274.534,349.426 244.68,345.016 186.688,331.244 C 122.561,315.12 103.397,299.682 93.8228,288.508 C 84.746,277.31 95.5266,254.054 147.199,242.646 C 173.362,236.28 270.802,235.11 270.802,235.11 C 242.848,212.916 190.365,173.179 179.637,164.729 C 170.228,157.318 155.066,145.944 153.437,135.78 C 151.238,125.887 166.812,121.123 175.056,120.573 C 201.624,118.741 237.9,121.856 270.146,128.269 C 286.356,131.492 289.202,131.017 289.202,131.017 C 312.286,132.116 330.242,120.024 329.326,94.5564 C 329.142,68.7228 303.314,48.0078 274.726,47.103 C 247.806,46.251 181.469,50.9506 181.469,50.9506 C 258.788,66.8906 271.426,70.9584 275.46,80.2654 C 277.842,85.762 271.482,91.227 250.176,90.1592 C 226.98,88.9968 179.454,83.3802 179.454,83.3802 C 134.199,76.4178 102.685,69.822 88.944,87.7774 C 79.9666,99.5078 90.2264,113.794 94.2572,122.222 C 112.213,153.553 143.261,175.048 162.964,190.196 C 170.377,195.896 193.012,208.518 193.012,208.518 C 122.656,189.28 66.5914,200.09 31.0472,218.778 C -9.8105,242.962 -2.82142,283.776 62.011,321.93 C 100.303,344.466 119.369,355.292 182.066,362.99 C 218.714,368.832 224.174,371.224 223.896,374.274 C 223.504,378.568 180.52,380.196 168.705,381.01 C 138.649,383.084 60.916,383.602 60.5272,383.602z"/>
    <path style="fill: none; fill-opacity:0; stroke-width: 4; stroke: #000080" d="M 60.5272 383.602 C 60.5272,383.602 81.535,389.702 109.499,393.188 C 120.824,394.602 163.912,399.538 196.948,399.408 C 196.948,399.408 237.184,399.454 259.394,396.298 C 282.632,392.996 295.798,388.784 303.126,380.376 C 303.316,378.372 306.662,371.838 297.63,365.536 C 274.534,349.426 244.68,345.016 186.688,331.244 C 122.561,315.12 103.397,299.682 93.8228,288.508 C 84.746,277.31 95.5266,254.054 147.199,242.646 C 173.362,236.28 270.802,235.11 270.802,235.11 C 242.848,212.916 190.365,173.179 179.637,164.729 C 170.228,157.318 155.066,145.944 153.437,135.78 C 151.238,125.887 166.812,121.123 175.056,120.573 C 201.624,118.741 237.9,121.856 270.146,128.269 C 286.356,131.492 289.202,131.017 289.202,131.017 C 312.286,132.116 330.242,120.024 329.326,94.5564 C 329.142,68.7228 303.314,48.0078 274.726,47.103 C 247.806,46.251 181.469,50.9506 181.469,50.9506 C 258.788,66.8906 271.426,70.9584 275.46,80.2654 C 277.842,85.762 271.482,91.227 250.176,90.1592 C 226.98,88.9968 179.454,83.3802 179.454,83.3802 C 134.199,76.4178 102.685,69.822 88.944,87.7774 C 79.9666,99.5078 90.2264,113.794 94.2572,122.222 C 112.213,153.553 143.261,175.048 162.964,190.196 C 170.377,195.896 193.012,208.518 193.012,208.518 C 122.656,189.28 66.5914,200.09 31.0472,218.778 C -9.8105,242.962 -2.82142,283.776 62.011,321.93 C 100.303,344.466 119.369,355.292 182.066,362.99 C 218.714,368.832 224.174,371.224 223.896,374.274 C 223.504,378.568 180.52,380.196 168.705,381.01 C 138.649,383.084 60.916,383.602 60.5272,383.602"/>
  </g>
  <text style="fill: #000000;text-anchor:start;font-size:12.8;font-family:sanserif;font-style:normal;font-weight:normal" x="500.666" y="252.88">
    <tspan x="500.666" y="252.88"></tspan>
  </text>
  <g>
    <ellipse style="fill: #000080" cx="278.166" cy="165.676" rx="54.5" ry="24.204"/>
    <ellipse style="fill: none; fill-opacity:0; stroke-width: 4; stroke: #000080" cx="278.166" cy="165.676" rx="54.5" ry="24.204"/>
    <text style="fill: #000080;text-anchor:middle;font-size:12.8;font-family:sanserif;font-style:normal;font-weight:normal" x="278.166" y="169.576">
      <tspan x="278.166" y="169.576"></tspan>
    </text>
  </g>
  <path style="fill: none; fill-opacity:0; stroke-width: 4; stroke: #000080" d="M 236.666,190.88 A 54.7738,54.7738 0 0 0 332.666,165.676"/>
  <g>
    <ellipse style="fill: #000080" cx="276.666" cy="280.88" rx="53" ry="24.5"/>
    <ellipse style="fill: none; fill-opacity:0; stroke-width: 4; stroke: #000080" cx="276.666" cy="280.88" rx="53" ry="24.5"/>
  </g>
  <path style="fill: none; fill-opacity:0; stroke-width: 4; stroke: #000080" d="M 234.508,306.226 A 54.1654,54.1654 0 0 0 329.666,280.88"/>
</svg>
